<?xml version="1.0" encoding="UTF-8" standalone="no"?>
<!-- Created with Inkscape (http://www.inkscape.org/) -->

<svg
   width="210mm"
   height="210mm"
   viewBox="0 0 210.00001 210"
   version="1.1"
   id="svg1"
   inkscape:version="1.4 (86a8ad7, 2024-10-11)"
   sodipodi:docname="eye_icon.svg"
   xmlns:inkscape="http://www.inkscape.org/namespaces/inkscape"
   xmlns:sodipodi="http://sodipodi.sourceforge.net/DTD/sodipodi-0.dtd"
   xmlns="http://www.w3.org/2000/svg"
   xmlns:svg="http://www.w3.org/2000/svg">
  <sodipodi:namedview
     id="namedview1"
     pagecolor="#ffffff"
     bordercolor="#000000"
     borderopacity="0.25"
     inkscape:showpageshadow="2"
     inkscape:pageopacity="0.0"
     inkscape:pagecheckerboard="0"
     inkscape:deskcolor="#d1d1d1"
     inkscape:document-units="mm"
     inkscape:zoom="0.25"
     inkscape:cx="110"
     inkscape:cy="288"
     inkscape:window-width="1560"
     inkscape:window-height="970"
     inkscape:window-x="-6"
     inkscape:window-y="-6"
     inkscape:window-maximized="1"
     inkscape:current-layer="layer1" />
  <defs
     id="defs1" />
  <g
     inkscape:label="Layer 1"
     inkscape:groupmode="layer"
     id="layer1">
    <g
       id="g8"
       transform="matrix(0.98869939,0,0,0.98869939,2.759243,11.239441)">
      <rect
         style="fill:#000000;fill-opacity:1;stroke:#000000;stroke-width:1.37391;stroke-linecap:butt;stroke-linejoin:round;stroke-dasharray:none;paint-order:stroke fill markers"
         id="rect1-5"
         width="183.79149"
         height="183.79149"
         x="25.130259"
         y="16.424683"
         ry="24.168303" />
      <rect
         style="fill:#f1f232;fill-opacity:1;stroke:#000000;stroke-width:1.37391;stroke-linecap:butt;stroke-linejoin:round;stroke-dasharray:none;paint-order:stroke fill markers"
         id="rect1"
         width="183.79149"
         height="183.79149"
         x="4.7729945"
         y="16.425312"
         ry="24.168303" />
      <rect
         style="fill:#f1f232;fill-opacity:1;stroke:#000000;stroke-width:1.37391;stroke-linecap:butt;stroke-linejoin:round;stroke-dasharray:none;stroke-opacity:1;paint-order:stroke fill markers"
         id="rect1-8"
         width="155.74437"
         height="155.74437"
         x="18.420702"
         y="31.334263"
         ry="20.480148" />
      <path
         style="fill:#000000;fill-opacity:1;stroke:#000000;stroke-width:1.37391;stroke-linecap:butt;stroke-linejoin:round;stroke-dasharray:none;stroke-opacity:1;paint-order:stroke fill markers"
         d="M 1.1571486,113.26061 C 35.67641,48.008448 93.06589,38.00045 102.71256,39.240292 c 32.61286,-1.236504 83.15778,28.332895 99.604,71.645348 -5.06564,10.13287 -37.35133,59.60608 -100.89688,59.71405 -41.227117,0.4931 -73.744639,-21.63301 -100.2625314,-57.33908 z"
         id="path3-1"
         sodipodi:nodetypes="ccccc" />
      <path
         style="fill:#ff91e8;fill-opacity:1;stroke:#000000;stroke-width:1.37391;stroke-linecap:butt;stroke-linejoin:round;stroke-dasharray:none;stroke-opacity:1;paint-order:stroke fill markers"
         d="M -1.329707,104.46658 C 33.189546,39.21449 90.157463,29.276743 99.804128,30.516591 132.417,29.280083 182.96191,58.849417 199.40813,102.16187 c -5.06564,10.13287 -37.35132,59.60608 -100.896877,59.71405 -41.227098,0.4931 -73.323073,-21.70327 -99.84096,-57.40934 z"
         id="path3"
         sodipodi:nodetypes="ccccc" />
      <path
         style="fill:#000000;fill-opacity:1;stroke:#000000;stroke-width:1.45276;stroke-linecap:butt;stroke-linejoin:round;stroke-dasharray:none;stroke-opacity:1;paint-order:stroke fill markers"
         id="path7"
         sodipodi:type="arc"
         sodipodi:cx="101.18732"
         sodipodi:cy="97.710991"
         sodipodi:rx="47.056248"
         sodipodi:ry="46.658813"
         sodipodi:start="0"
         sodipodi:end="6.2783835"
         sodipodi:arc-type="slice"
         d="M 148.24356,97.710991 A 47.056248,46.658813 0 0 1 101.24381,144.36977 47.056248,46.658813 0 0 1 54.131205,97.823014 47.056248,46.658813 0 0 1 101.01785,51.05248 47.056248,46.658813 0 0 1 148.24302,97.486945 l -47.0557,0.224046 z"
         inkscape:transform-center-x="-1.0082928e-06"
         inkscape:transform-center-y="0.86781458" />
      <path
         style="fill:#ffffff;fill-opacity:1;stroke:#ffffff;stroke-width:0.920519;stroke-linecap:butt;stroke-linejoin:round;stroke-dasharray:none;stroke-opacity:1;paint-order:stroke fill markers"
         id="path7-2"
         sodipodi:type="arc"
         sodipodi:cx="-4.6681743"
         sodipodi:cy="144.91353"
         sodipodi:rx="29.835081"
         sodipodi:ry="29.583094"
         sodipodi:start="6.2816395"
         sodipodi:end="6.2794318"
         sodipodi:arc-type="slice"
         d="m 25.166871,144.8678 a 29.835081,29.583094 0 0 1 -29.7724593,29.62876 29.835081,29.583094 0 0 1 -29.8975627,-29.50465 29.835081,29.583094 0 0 1 29.7394574,-29.66132 29.835081,29.583094 0 0 1 29.9303906,29.4719 l -29.8348713,0.11104 z"
         inkscape:transform-center-x="0.30564823"
         inkscape:transform-center-y="-0.44108456"
         transform="rotate(-50.786549)" />
      <path
         style="fill:#ff91e8;fill-opacity:1;stroke:none;stroke-width:0.920517;stroke-linejoin:round;stroke-dasharray:none;stroke-opacity:1;paint-order:stroke fill markers"
         d="M 121.25763,54.19221 V 92.941804 L 146.59392,67.605528 Z"
         id="path1" />
      <path
         style="fill:#ff91e8;fill-opacity:1;stroke:#000000;stroke-width:0.320015;stroke-linejoin:round;stroke-dasharray:none;stroke-opacity:1;paint-order:stroke fill markers"
         d="m 121.21563,54.679233 0.18346,38.045686"
         id="path2"
         sodipodi:nodetypes="cc" />
      <path
         style="fill:#ff91e8;fill-opacity:1;stroke:#000000;stroke-width:0.316522;stroke-linejoin:round;stroke-dasharray:none;stroke-opacity:1;paint-order:stroke fill markers"
         d="m 141.76265,72.706164 -20.3156,19.906713"
         id="path4"
         inkscape:transform-center-x="-3.8249125"
         inkscape:transform-center-y="-3.8113839" />
      <path
         style="fill:#000000;fill-opacity:1;stroke:none;stroke-width:0.5153;stroke-linejoin:round;stroke-dasharray:none;stroke-opacity:1;paint-order:stroke fill markers"
         d="m 121.23941,92.722913 v 0.322264 l 0.40117,-0.40114 z"
         id="path5" />
      <path
         sodipodi:type="star"
         style="fill:#ffffff;fill-opacity:1;stroke:#000000;stroke-width:1;stroke-linejoin:round;stroke-dasharray:none;stroke-opacity:1;paint-order:stroke fill markers"
         id="path6"
         inkscape:flatsided="false"
         sodipodi:sides="4"
         sodipodi:cx="37.013798"
         sodipodi:cy="23.894983"
         sodipodi:r1="13.152238"
         sodipodi:r2="3.1457026"
         sodipodi:arg1="0"
         sodipodi:arg2="0.71952659"
         inkscape:rounded="0"
         inkscape:randomized="0"
         d="M 50.166036,23.894983 39.379737,25.968092 37.013798,37.047221 34.94069,26.260922 23.86156,23.894983 l 10.786299,-2.073108 2.365939,-11.07913 2.073108,10.786299 z"
         transform="matrix(1.5389393,0,0,1.5389393,-9.7376608,-27.131178)" />
      <path
         sodipodi:type="star"
         style="fill:#ffffff;fill-opacity:1;stroke:#000000;stroke-width:1;stroke-linejoin:round;stroke-dasharray:none;stroke-opacity:1;paint-order:stroke fill markers"
         id="path6-8"
         inkscape:flatsided="false"
         sodipodi:sides="4"
         sodipodi:cx="37.013798"
         sodipodi:cy="23.894983"
         sodipodi:r1="13.152238"
         sodipodi:r2="3.1457026"
         sodipodi:arg1="0"
         sodipodi:arg2="0.71952659"
         inkscape:rounded="0"
         inkscape:randomized="0"
         d="M 50.166036,23.894983 39.379737,25.968092 37.013798,37.047221 34.94069,26.260922 23.86156,23.894983 l 10.786299,-2.073108 2.365939,-11.07913 2.073108,10.786299 z"
         transform="matrix(1.5625152,0,0,1.5625152,98.392368,132.8965)" />
      <path
         style="fill:#ffffff;fill-opacity:1;stroke:none;stroke-width:1.37391;stroke-linejoin:round;stroke-dasharray:none;stroke-opacity:1;paint-order:stroke fill markers"
         d="m 1.5802534,109.39518 2.5034689,3.24313 v 6.25866 l -6.2302221,-6.23022 z"
         id="path9" />
      <path
         style="fill:#ff91e8;fill-opacity:1;stroke-width:1;stroke-linejoin:round;paint-order:stroke fill markers"
         d="m 121.1539,54.660903 c 0.0895,0.04381 0.15229,0.07002 0.26204,0.142973 l 0.0453,-0.142999 z"
         id="path8"
         sodipodi:nodetypes="cccc" />
    </g>
  </g>
</svg>
